<?xml version="1.0" encoding="UTF-8"?>
<svg version="1.1" xmlns="http://www.w3.org/2000/svg">
<path d="M0 0 C122.76 0 245.52 0 372 0 C372 47.52 372 95.04 372 144 C249.24 144 126.48 144 0 144 C0 96.48 0 48.96 0 0 Z M7 7 C7 49.9 7 92.8 7 137 C125.14 137 243.28 137 365 137 C365 94.1 365 51.2 365 7 C246.86 7 128.72 7 7 7 Z " fill="currentcolor" transform="translate(3,3)"/>
<path d="M0 0 C5.22971874 -0.31378312 8.58573719 0.09059951 13 3 C15.23440178 5.45063421 16.02034336 6.99130862 15.953125 10.32421875 C15.71334629 12.57038109 15.40187498 14.77758293 15 17 C9.45930585 12.498186 4.36857686 7.67347644 0 2 C0 1.34 0 0.68 0 0 Z " fill="currentcolor" transform="translate(35,57)"/>
<path d="M0 0 C2.8125 -0.3125 2.8125 -0.3125 6 0 C9.796608 5.33729564 12.07359059 11.71429539 14.6875 17.6875 C15.19861328 18.84056641 15.70972656 19.99363281 16.23632812 21.18164062 C16.71908203 22.28056641 17.20183594 23.37949219 17.69921875 24.51171875 C18.14096436 25.51678467 18.58270996 26.52185059 19.0378418 27.55737305 C20 30 20 30 20 32 C17.69 32 15.38 32 13 32 C9.37707197 25.38118917 6.49285135 18.49344693 3.6875 11.5 C3.32591797 10.60313477 2.96433594 9.70626953 2.59179688 8.78222656 C2.25599609 7.9362793 1.92019531 7.09033203 1.57421875 6.21875 C1.27088623 5.45498047 0.96755371 4.69121094 0.6550293 3.90429688 C0 2 0 2 0 0 Z " fill="currentcolor" transform="translate(87,57)"/>
<path d="M0 0 C3.6875 1.5 3.6875 1.5 6 3 C5.6875 4.875 5.6875 4.875 5 7 C4.01 7.66 3.02 8.32 2 9 C1.43410156 8.66871094 0.86820313 8.33742188 0.28515625 7.99609375 C-2.88602228 6.61378516 -5.4865065 6.98810585 -8.87890625 7.22265625 C-11.5493136 6.94233725 -12.3356887 6.03652149 -14 4 C-13.67 3.01 -13.34 2.02 -13 1 C-9.08185342 -0.95907329 -4.28079274 -0.36124833 0 0 Z " fill="currentcolor" transform="translate(149,57)"/>
<path d="M0 0 C10.55808656 -0.55353075 10.55808656 -0.55353075 15 3 C14.1875 4.9375 14.1875 4.9375 13 7 C9.64983146 8.11672285 9.07440438 7.92467164 5.9375 6.6875 C5.24527344 6.42324219 4.55304688 6.15898438 3.83984375 5.88671875 C2 5 2 5 0 3 C0 2.01 0 1.02 0 0 Z " fill="currentcolor" transform="translate(190,57)"/>
<path d="M0 0 C1.98 0 3.96 0 6 0 C7 1 7 1 7.09765625 3.72265625 C7.08605469 4.82480469 7.07445312 5.92695312 7.0625 7.0625 C7.05347656 8.16722656 7.04445312 9.27195312 7.03515625 10.41015625 C7.02355469 11.26480469 7.01195312 12.11945313 7 13 C8.65 13 10.3 13 12 13 C12 14.98 12 16.96 12 19 C10.35 19 8.7 19 7 19 C7 23.29 7 27.58 7 32 C4.69 32 2.38 32 0 32 C0 21.44 0 10.88 0 0 Z " fill="currentcolor" transform="translate(228,57)"/>
<path d="M0 0 C1.98 0 3.96 0 6 0 C7 1 7 1 7.11352539 3.95922852 C7.10828857 5.25272217 7.10305176 6.54621582 7.09765625 7.87890625 C7.0962413 8.5655687 7.09482635 9.25223114 7.09336853 9.95970154 C7.08775479 12.16067801 7.07520007 14.36155409 7.0625 16.5625 C7.05748676 18.05143083 7.05292355 19.54036324 7.04882812 21.02929688 C7.03778093 24.68623075 7.02050713 28.34310558 7 32 C4.69 32 2.38 32 0 32 C0 21.44 0 10.88 0 0 Z " fill="currentcolor" transform="translate(248,57)"/>
<path d="M0 0 C1.98 0 3.96 0 6 0 C9.5704663 7.54234598 13.10397448 15.09938583 16.4375 22.75 C16.93121094 23.87921875 17.42492187 25.0084375 17.93359375 26.171875 C19 29 19 29 19 32 C16.69 32 14.38 32 12 32 C10.2816876 28.08962062 8.57300401 24.17521786 6.87304688 20.25683594 C6.2936342 18.92496453 5.71162444 17.59421978 5.12695312 16.26464844 C4.28607716 14.3512266 3.45468306 12.433922 2.625 10.515625 C2.12226563 9.36352539 1.61953125 8.21142578 1.1015625 7.02441406 C0 4 0 4 0 0 Z " fill="currentcolor" transform="translate(291,57)"/>
<path d="M0 0 C1.00023193 0.00523682 2.00046387 0.01047363 3.03100586 0.01586914 C4.1105957 0.0190918 5.19018555 0.02231445 6.30249023 0.02563477 C8.00695312 0.03820313 8.00695312 0.03820313 9.74584961 0.05102539 C11.45611328 0.05779297 11.45611328 0.05779297 13.20092773 0.06469727 C16.02845312 0.07652792 18.85587601 0.09301129 21.68334961 0.11352539 C21.68334961 2.09352539 21.68334961 4.07352539 21.68334961 6.11352539 C13.43334961 6.11352539 5.18334961 6.11352539 -3.31665039 6.11352539 C-3.31665039 0.1625295 -3.31665039 0.1625295 0 0 Z " fill="currentcolor" transform="translate(333.316650390625,56.886474609375)"/>
<path d="M0 0 C5.14814815 2.57407407 5.14814815 2.57407407 7 6 C7.1875 9.75 7.1875 9.75 7 13 C8.34384766 12.87431641 8.34384766 12.87431641 9.71484375 12.74609375 C13.81167549 13.06273354 14.79925091 14.10152288 17.5625 17.0625 C18.325625 17.8771875 19.08875 18.691875 19.875 19.53125 C22.48975783 22.56898336 24.79379047 25.65510168 27 29 C23.51285738 29.57880851 20.47013698 29.74923412 17 29 C14.46042521 26.89482617 12.59284544 24.68407425 10.59375 22.06640625 C9.16141493 19.89940603 9.16141493 19.89940603 7 19 C7 22.3 7 25.6 7 29 C4.69 29 2.38 29 0 29 C0 19.43 0 9.86 0 0 Z " fill="currentcolor" transform="translate(25,60)"/>
<path d="M0 0 C3 1 3 1 5 4 C5.16834777 5.80766866 5.26571185 7.62261218 5.3125 9.4375 C5.65105624 13.93880641 5.65105624 13.93880641 8.125 17.6875 C11.01355404 19.25585736 11.01355404 19.25585736 14.5625 18.9375 C18 19 18 19 20.4375 21.5 C20.953125 22.325 21.46875 23.15 22 24 C17.73567018 26.84288655 14.00460629 26.50748738 9 26 C4.80306064 24.44557802 1.75664334 22.54425573 -1 19 C-3.21235545 13.5217865 -3.11294107 9.65745043 -2 4 C-0.9375 1.5 -0.9375 1.5 0 0 Z " fill="currentcolor" transform="translate(181,63)"/>
<path d="M0 0 C2.46800047 1.15173355 4.04783565 2.04783565 6 4 C6.57785515 6.25577528 6.95037975 8.51340296 7.33984375 10.80859375 C8.10812627 13.35892804 8.90158764 14.38392413 11 16 C12.7015625 16.433125 12.7015625 16.433125 14.4375 16.875 C18.50128009 18.15829898 19.69961714 19.50341805 22 23 C15.71510045 24.20751542 10.61128484 24.41078098 5 21 C1.57129197 17.87757855 -0.83953278 14.6052325 -1.1328125 9.84375 C-1.13023438 9.0703125 -1.12765625 8.296875 -1.125 7.5 C-1.12757812 6.7265625 -1.13015625 5.953125 -1.1328125 5.15625 C-1 3 -1 3 0 0 Z " fill="currentcolor" transform="translate(128,66)"/>
<path d="M0 0 C3.16277272 1.58138636 3.43093689 4.32596051 4.625 7.5625 C5.07101563 8.76003906 5.51703125 9.95757812 5.9765625 11.19140625 C6.31429687 12.11824219 6.65203125 13.04507813 7 14 C5.02 14 3.04 14 1 14 C0.34 16.31 -0.32 18.62 -1 21 C-3.64 21 -6.28 21 -9 21 C-6.32365696 13.80458592 -3.59434934 6.78932652 0 0 Z " fill="currentcolor" transform="translate(82,68)"/>
<path d="M0 0 C0.66 0 1.32 0 2 0 C2.83764268 1.95649397 3.66999059 3.91525556 4.5 5.875 C4.9640625 6.96554688 5.428125 8.05609375 5.90625 9.1796875 C7 12 7 12 7 14 C6.236875 14.04125 5.47375 14.0825 4.6875 14.125 C1.67594887 14.77823609 1.67594887 14.77823609 0.1875 18.0625 C-0.204375 19.031875 -0.59625 20.00125 -1 21 C-3.31 21 -5.62 21 -8 21 C-5.72564796 13.81783567 -2.96415819 6.9241798 0 0 Z " fill="currentcolor" transform="translate(285,68)"/>
<path d="M0 0 C1.98 0 3.96 0 6 0 C6 6.27 6 12.54 6 19 C3.69 19 1.38 19 -1 19 C-1.02683987 16.02077407 -1.04676037 13.04178705 -1.0625 10.0625 C-1.07087891 9.21236328 -1.07925781 8.36222656 -1.08789062 7.48632812 C-1.09111328 6.67744141 -1.09433594 5.86855469 -1.09765625 5.03515625 C-1.10289307 4.2862915 -1.10812988 3.53742676 -1.11352539 2.76586914 C-1 1 -1 1 0 0 Z " fill="currentcolor" transform="translate(340,70)"/>
<path d="M0 0 C1.99954746 -0.04254356 4.00041636 -0.04080783 6 0 C7 1 7 1 7.09765625 3.28515625 C7.08605469 4.20167969 7.07445312 5.11820312 7.0625 6.0625 C7.05347656 6.98160156 7.04445312 7.90070313 7.03515625 8.84765625 C7.02355469 9.55792969 7.01195312 10.26820312 7 11 C3.22840309 9.74280103 2.16687282 8.2876691 0 5 C-0.25 2.1875 -0.25 2.1875 0 0 Z " fill="currentcolor" transform="translate(150,73)"/>
</svg>
